<svg width="21" height="20" viewBox="0 0 21 20" fill="none" xmlns="http://www.w3.org/2000/svg">
<path d="M12.2098 0.962171C11.7704 0.0449431 10.4323 -0.00748159 9.90206 0.871756C9.49803 1.5422 8.56577 1.70809 7.94659 1.21976C7.13462 0.579365 5.90064 1.08957 5.81878 2.09952C5.75633 2.86962 4.98823 3.40669 4.20769 3.22618C3.18378 2.98941 2.29862 3.96109 2.68119 4.90179C2.973 5.61912 2.52157 6.4209 1.73393 6.58409C0.700841 6.79779 0.339887 8.03861 1.11116 8.72383C1.69946 9.246 1.65357 10.154 1.01491 10.6281C0.17756 11.2503 0.411906 12.5144 1.41935 12.8081C2.18742 13.0322 2.55617 13.8661 2.19315 14.5578C1.71719 15.4649 2.50083 16.5018 3.54458 16.3461C4.34024 16.2274 5.05112 16.8225 5.03564 17.5943C5.01529 18.6067 6.19291 19.2114 7.06627 18.6371C7.73227 18.199 8.64412 18.4371 8.9789 19.1367C9.41834 20.0539 10.7564 20.1063 11.2867 19.2271C11.6907 18.5564 12.6229 18.3906 13.2421 18.879C14.0541 19.5194 15.2881 19.0091 15.3699 17.9991C15.4324 17.2292 16.2002 16.6921 16.981 16.8725C18.0049 17.1092 18.8901 16.1377 18.5075 15.197C18.2157 14.4797 18.6671 13.6779 19.4548 13.5147C20.4879 13.301 20.8488 12.0602 20.0776 11.375C19.4893 10.8528 19.5351 9.94478 20.1738 9.47068C21.0112 8.84849 20.7768 7.58434 19.7694 7.2907C19.0013 7.06656 18.6325 6.23264 18.9956 5.54097C19.4715 4.6339 18.6879 3.59684 17.6441 3.75261C16.8481 3.87135 16.1376 3.27635 16.1531 2.50441C16.1734 1.49204 14.9958 0.887357 14.1224 1.46173C13.4564 1.8997 12.5446 1.66156 12.2098 0.962171Z" fill="#FDFDFD"/>
</svg>
