<svg width="42" height="42" viewBox="0 0 42 42" fill="none" xmlns="http://www.w3.org/2000/svg">
<path d="M24.0535 2.27178C23.1675 0.35154 20.4919 0.232474 19.4389 2.06643C18.6365 3.46488 16.774 3.805 15.5321 2.77995C13.9036 1.43567 11.4406 2.49331 11.2851 4.60367C11.1664 6.21283 9.63511 7.32993 8.07312 6.94711C6.02412 6.44496 4.26223 8.46961 5.0347 10.4385C5.62388 11.9399 4.7278 13.6125 3.15439 13.948C1.09066 14.3874 0.379001 16.9783 1.92652 18.4159C3.10692 19.5115 3.02248 21.4091 1.74943 22.3955C0.080334 23.69 0.559044 26.3339 2.5756 26.9548C4.11299 27.4287 4.85696 29.1743 4.13675 30.6174C3.19245 32.5099 4.76755 34.6828 6.85305 34.3647C8.44286 34.1223 9.86891 35.3711 9.84418 36.9841C9.81164 39.1 12.1709 40.3724 13.9124 39.1781C15.2404 38.2673 17.0654 38.7713 17.7404 40.236C18.6263 42.1561 21.302 42.2751 22.355 40.4413C23.1574 39.0424 25.0199 38.7025 26.2617 39.7277C27.8903 41.0719 30.3532 40.0141 30.5088 37.9037C30.6274 36.2949 32.1581 35.1777 33.7207 35.5603C35.7698 36.0623 37.5316 34.038 36.7592 32.0691C36.17 30.5677 37.0661 28.8951 38.6395 28.5596C40.7032 28.1203 41.4149 25.5293 39.8673 24.0917C38.6869 22.9961 38.7714 21.0986 40.0444 20.1122C41.7135 18.8176 41.2348 16.1737 39.2183 15.5528C37.6809 15.0789 36.9369 13.3333 37.6571 11.8902C38.6014 9.99768 37.0263 7.82454 34.9408 8.14271C33.3503 8.38525 31.9249 7.13657 31.9497 5.52323C31.9822 3.4074 29.6229 2.13517 27.8814 3.32948C26.5534 4.24018 24.7285 3.73597 24.0535 2.27178Z" fill="#FFC700"/>
</svg>
