<svg width="41" height="41" viewBox="0 0 41 41" fill="none" xmlns="http://www.w3.org/2000/svg">
<path d="M24.0446 2.38137C23.1658 0.546917 20.4896 0.442068 19.4291 2.20054C18.6211 3.54142 16.7565 3.87321 15.5182 2.89656C13.8942 1.61576 11.4263 2.63616 11.2626 4.65608C11.1377 6.19627 9.60147 7.27042 8.04038 6.9094C5.99257 6.43585 4.22223 8.37921 4.98739 10.2606C5.571 11.6953 4.66814 13.2988 3.09286 13.6252C1.02668 14.0526 0.304774 16.5343 1.84731 17.9047C3.02393 18.949 2.93214 20.7651 1.65482 21.7133C-0.0198804 22.9576 0.448812 25.4859 2.46371 26.0732C3.99983 26.5215 4.73735 28.1893 4.01131 29.5727C3.05937 31.3868 4.62667 33.4606 6.71416 33.1492C8.30548 32.9119 9.72723 34.102 9.69627 35.6455C9.65557 37.6703 12.0108 38.8798 13.7576 37.7312C15.0895 36.8551 16.9132 37.3312 17.5828 38.7304C18.4617 40.5647 21.1379 40.6696 22.1983 38.9112C23.0064 37.5699 24.8709 37.2383 26.1093 38.2151C27.7332 39.4958 30.2011 38.4753 30.3649 36.4553C30.4898 34.9154 32.0253 33.8412 33.5871 34.2021C35.6349 34.6755 37.4052 32.7324 36.64 30.851C36.0564 29.4164 36.9593 27.8128 38.5346 27.4864C40.6007 27.059 41.3227 24.5774 39.7801 23.207C38.6035 22.1626 38.6953 20.3466 39.9726 19.3984C41.6473 18.154 41.1786 15.6257 39.1637 15.0384C37.6276 14.5901 36.8901 12.9223 37.6161 11.539C38.5681 9.72484 37.0008 7.65072 34.9133 7.96225C33.3213 8.19973 31.9002 7.00972 31.9312 5.46585C31.9719 3.44112 29.6166 2.23175 27.8699 3.38048C26.5379 4.25643 24.7142 3.78015 24.0446 2.38137Z" fill="#5281B6"/>
</svg>
