<svg width="375" height="342" viewBox="0 0 375 342" fill="none" xmlns="http://www.w3.org/2000/svg">
<path d="M225.46 287.138C226.049 290.478 229.239 292.725 232.546 291.97C246.244 288.843 259.321 283.386 271.198 275.821C283.075 268.257 293.551 258.715 302.177 247.624C304.259 244.946 303.572 241.106 300.794 239.16C298.016 237.214 294.199 237.901 292.102 240.567C284.411 250.343 275.116 258.763 264.6 265.461C254.083 272.158 242.522 277.021 230.411 279.856C227.108 280.629 224.872 283.797 225.46 287.138Z" fill="#FFC700"/>
<path d="M218.859 246.979C219.449 250.327 222.649 252.586 225.943 251.747C234.37 249.6 242.415 246.125 249.772 241.44C257.129 236.754 263.681 230.933 269.19 224.204C271.343 221.574 270.649 217.719 267.865 215.769C265.081 213.819 261.263 214.515 259.075 217.117C254.517 222.536 249.153 227.24 243.16 231.056C237.167 234.873 230.636 237.745 223.798 239.584C220.515 240.466 218.269 243.631 218.859 246.979Z" fill="#FFC700"/>
<path d="M96.0015 131.098C92.827 129.903 89.269 131.503 88.2341 134.734C82.8489 151.541 81.1416 169.337 83.2586 186.907C85.3756 204.477 91.2609 221.358 100.484 236.405C102.257 239.297 106.093 240.007 108.893 238.092C111.693 236.177 112.394 232.363 110.638 229.462C102.52 216.052 97.3348 201.047 95.4541 185.438C93.5733 169.828 95.0463 154.021 99.7462 139.067C100.763 135.831 99.176 132.293 96.0015 131.098Z" fill="#FFC700"/>
<path d="M130.113 165.066C126.729 164.746 123.701 167.232 123.636 170.63C123.467 179.325 124.682 188.004 127.246 196.341C129.809 204.678 133.682 212.54 138.707 219.638C140.671 222.412 144.572 222.767 147.191 220.601C149.81 218.434 150.153 214.568 148.225 211.768C144.21 205.935 141.1 199.514 139.012 192.723C136.923 185.932 135.888 178.873 135.932 171.792C135.952 168.392 133.497 165.387 130.113 165.066Z" fill="#FFC700"/>
<path d="M126.189 258.078C123.892 260.574 124.043 264.472 126.651 266.642C148.435 284.767 175.827 294.804 204.164 295.045C207.556 295.074 210.19 292.196 210.05 288.807C209.909 285.418 207.046 282.803 203.654 282.755C178.574 282.402 154.35 273.526 134.981 257.591C132.361 255.436 128.486 255.582 126.189 258.078Z" fill="#FFC700"/>
<path d="M154.28 228.075C151.978 230.577 152.127 234.491 154.793 236.599C168.542 247.469 185.419 253.653 202.935 254.24C206.333 254.354 208.975 251.462 208.834 248.065C208.693 244.669 205.821 242.058 202.425 241.899C188.174 241.233 174.463 236.209 163.156 227.51C160.461 225.437 156.582 225.574 154.28 228.075Z" fill="#FFC700"/>
<path d="M307.98 116.927C310.967 115.32 312.099 111.586 310.345 108.683C300.956 93.1463 288.226 79.8604 273.05 69.8072C257.873 59.754 240.675 53.2139 222.706 50.6287C219.349 50.1456 216.353 52.6443 216.038 56.0217C215.723 59.3991 218.21 62.3746 221.565 62.8763C237.516 65.2618 252.779 71.1133 266.266 80.0478C279.753 88.9823 291.094 100.754 299.512 114.511C301.283 117.405 304.993 118.534 307.98 116.927Z" fill="#FFC700"/>
<path d="M272.54 136.254C275.533 134.643 276.674 130.896 274.844 128.031C265.407 113.262 251.483 101.897 235.122 95.611C231.949 94.3919 228.506 96.2602 227.528 99.5158C226.55 102.771 228.41 106.178 231.567 107.439C244.816 112.731 256.128 121.965 263.968 133.884C265.836 136.724 269.546 137.864 272.54 136.254Z" fill="#FFC700"/>
<path d="M310.75 222.008C313.818 223.455 317.493 222.147 318.786 219.01C324.139 206.019 327.229 192.191 327.907 178.125C328.585 164.06 326.838 149.999 322.759 136.553C321.774 133.307 318.242 131.651 315.049 132.797C311.856 133.943 310.215 137.456 311.181 140.707C314.726 152.63 316.238 165.081 315.637 177.534C315.037 189.988 312.336 202.235 307.661 213.762C306.386 216.906 307.682 220.56 310.75 222.008Z" fill="#FFC700"/>
<path d="M274.342 204.611C277.416 206.061 281.108 204.752 282.324 201.577C285.435 193.457 287.24 184.881 287.66 176.168C288.08 167.456 287.107 158.746 284.792 150.364C283.886 147.088 280.338 145.429 277.138 146.577C273.939 147.726 272.304 151.246 273.166 154.534C274.961 161.384 275.706 168.479 275.364 175.576C275.022 182.673 273.598 189.664 271.153 196.309C269.979 199.499 271.267 203.16 274.342 204.611Z" fill="#FFC700"/>
<circle cx="154.771" cy="98.3018" r="25.9289" transform="rotate(-5.07093 154.771 98.3018)" stroke="#FFC700" stroke-width="11"/>
</svg>
