<svg width="375" height="342" viewBox="0 0 375 342" fill="none" xmlns="http://www.w3.org/2000/svg">
<g clip-path="url(#clip0_212_2364)">
<path d="M172.82 295.84C172.287 299.019 174.432 302.042 177.632 302.433C195.082 304.562 212.802 303.158 229.732 298.28C248.534 292.863 265.883 283.3 280.502 270.294C295.121 257.288 306.638 241.171 314.207 223.127C321.776 205.084 325.204 185.573 324.238 166.03C323.272 146.487 317.938 127.409 308.627 110.199C299.317 92.9897 286.267 78.0862 270.437 66.585C254.607 55.0838 236.4 47.2774 217.156 43.7402C199.827 40.5551 182.054 40.9043 164.9 44.7437C161.754 45.4478 159.918 48.6675 160.761 51.7789C161.605 54.8904 164.809 56.714 167.958 56.0236C183.425 52.6327 199.433 52.3526 215.045 55.2222C232.574 58.444 249.157 65.5542 263.575 76.0297C277.993 86.5052 289.879 100.08 298.359 115.755C306.84 131.429 311.698 148.806 312.578 166.606C313.457 184.406 310.335 202.177 303.441 218.612C296.548 235.046 286.057 249.726 272.742 261.572C259.427 273.418 243.626 282.128 226.5 287.062C211.247 291.457 195.29 292.756 179.563 290.906C176.362 290.53 173.353 292.66 172.82 295.84Z" fill="#FFC700"/>
<path d="M116.548 221.85C113.804 223.636 113.012 227.321 114.963 229.95C125.912 244.707 140.883 256.06 158.14 262.61C177.248 269.863 198.168 270.851 217.874 265.431C237.581 260.011 255.053 248.463 267.764 232.459C280.475 216.454 287.767 196.821 288.585 176.399C289.402 155.977 283.704 135.825 272.313 118.855C260.922 101.885 244.429 88.9776 225.219 81.9991C206.009 75.0206 185.077 74.3326 165.451 80.0345C147.726 85.1839 131.895 95.3036 119.801 109.137C117.646 111.602 118.14 115.339 120.733 117.338C123.326 119.338 127.033 118.84 129.21 116.394C139.752 104.543 153.45 95.8679 168.758 91.4206C185.97 86.4204 204.325 87.0237 221.171 93.1433C238.017 99.2629 252.479 110.582 262.468 125.463C272.457 140.344 277.454 158.016 276.737 175.925C276.02 193.833 269.626 211.05 258.479 225.085C247.332 239.12 232.011 249.246 214.73 253.999C197.449 258.752 179.104 257.885 162.347 251.525C147.443 245.868 134.483 236.125 124.922 223.469C122.948 220.857 119.292 220.065 116.548 221.85Z" fill="#FFC700"/>
<circle cx="197.521" cy="170.663" r="26.2013" transform="rotate(-43.5271 197.521 170.663)" stroke="#FFC700" stroke-width="11"/>
</g>
<defs>
<clipPath id="clip0_212_2364">
<rect width="375" height="342" fill="white"/>
</clipPath>
</defs>
</svg>
