<svg width="375" height="341" viewBox="0 0 375 341" fill="none" xmlns="http://www.w3.org/2000/svg">
<g clip-path="url(#clip0_212_2393)">
<path d="M161.824 237.185C161.264 239.949 163.049 242.657 165.838 243.079C187.745 246.389 210.188 242.489 229.749 231.891C250.81 220.479 267.19 202.028 276.026 179.763C284.861 157.498 285.589 132.836 278.083 110.089C270.577 87.3412 255.314 67.9558 234.962 55.3218C214.611 42.6878 190.467 37.6089 166.75 40.9733C143.034 44.3377 121.254 55.9311 105.22 73.7267C89.1854 91.5224 79.9161 114.388 79.0325 138.325C78.2118 160.558 84.6735 182.402 97.3587 200.567C98.9735 202.879 102.193 203.278 104.422 201.55C106.65 199.821 107.043 196.621 105.441 194.3C94.2168 178.035 88.5065 158.541 89.2387 138.702C90.034 117.158 98.3764 96.5794 112.807 80.5634C127.238 64.5473 146.84 54.1132 168.185 51.0852C189.53 48.0573 211.26 52.6283 229.576 63.9989C247.892 75.3695 261.628 92.8164 268.384 113.289C275.14 133.762 274.484 155.958 266.533 175.996C258.581 196.035 243.839 212.641 224.884 222.911C207.429 232.368 187.425 235.899 167.869 233.055C165.078 232.649 162.384 234.421 161.824 237.185Z" fill="#FFC700"/>
<path d="M100.857 196.563L86.5753 273.206C86.276 274.812 87.9244 276.08 89.4 275.378L166.857 238.563" stroke="#FFC700" stroke-width="11"/>
<path d="M270.752 259.57C271.264 262.414 269.374 265.15 266.506 265.498C247.039 267.863 227.273 263.91 210.16 254.147C191.528 243.518 177.224 226.678 169.751 206.571C162.277 186.465 162.108 164.371 169.274 144.152C176.44 123.934 190.485 106.878 208.953 95.9653C227.421 85.053 249.136 80.9791 270.303 84.456C291.471 87.9328 310.742 98.7391 324.749 114.986C338.756 131.232 346.606 151.885 346.928 173.333C347.224 193.033 341.151 212.254 329.688 228.165C327.999 230.509 324.691 230.845 322.447 229.025C320.203 227.204 319.875 223.919 321.547 221.562C331.473 207.567 336.725 190.736 336.467 173.49C336.181 154.495 329.229 136.205 316.825 121.818C304.42 107.43 287.353 97.8597 268.608 94.7806C249.862 91.7015 230.631 95.3093 214.275 104.973C197.92 114.637 185.483 129.742 179.136 147.648C172.79 165.553 172.939 185.119 179.558 202.926C186.177 220.732 198.844 235.646 215.344 245.059C230.326 253.606 247.603 257.125 264.65 255.181C267.521 254.854 270.241 256.727 270.752 259.57Z" fill="#FFC700"/>
<path d="M326.688 224.5L346.989 299.567C347.445 301.253 345.671 302.673 344.125 301.858L265.688 260.5" stroke="#FFC700" stroke-width="11"/>
</g>
<defs>
<clipPath id="clip0_212_2393">
<rect width="375" height="341" fill="white"/>
</clipPath>
</defs>
</svg>
