<svg width="118" height="121" viewBox="0 0 118 121" fill="none" xmlns="http://www.w3.org/2000/svg">
<rect x="58.1426" y="31.4421" width="2.02939" height="57.0765" fill="#FFC700"/>
<rect x="31.0801" y="61.0115" width="2.06301" height="56.1465" transform="rotate(-90 31.0801 61.0115)" fill="#FFC700"/>
<rect width="2.02191" height="29.3177" transform="matrix(0.701275 0.712891 -0.701275 0.712891 59.1602 0.863281)" fill="#FFC700"/>
<rect width="2.02191" height="29.3177" transform="matrix(0.701275 -0.712891 0.701275 0.712891 57.7441 2.30493)" fill="#FFC700"/>
<rect width="2.02191" height="29.3177" transform="matrix(0.701275 -0.712891 -0.701275 -0.712891 59.1602 120.124)" fill="#FFC700"/>
<rect width="2.02191" height="29.3177" transform="matrix(0.701275 0.712891 0.701275 -0.712891 57.7441 118.682)" fill="#FFC700"/>
<rect width="2.02191" height="29.3177" transform="matrix(0.701275 -0.712891 0.701275 0.712891 0.505859 61.5149)" fill="#FFC700"/>
<rect width="2.02191" height="29.3177" transform="matrix(-0.701275 -0.712891 0.701275 -0.712891 1.92773 62.9565)" fill="#FFC700"/>
<rect width="2.02191" height="29.3177" transform="matrix(-0.701275 -0.712891 -0.701275 0.712891 117.828 61.5129)" fill="#FFC700"/>
<rect width="2.02191" height="29.3177" transform="matrix(0.701275 -0.712891 -0.701275 -0.712891 116.406 62.9546)" fill="#FFC700"/>
</svg>
