<svg width="375" height="340" viewBox="0 0 375 340" fill="none" xmlns="http://www.w3.org/2000/svg">
<path d="M262.25 214V214C300.632 210.466 330 178.27 330 139.726V120.02V120.02C326.899 78.2813 292.13 46 250.276 46H148.568C106.672 46 71.1817 76.8715 65.3778 118.363V118.363C58.3099 168.891 97.5484 214 148.568 214H168H235" stroke="#FFC700" stroke-width="11"/>
<path d="M268 217.5L277.601 291.691C277.886 293.894 274.904 294.85 273.855 292.892L230 211" stroke="#FFC700" stroke-width="11"/>
<rect x="156" y="156" width="81" height="10" rx="5" fill="#FFC700"/>
<rect x="156" y="130" width="124" height="10" rx="5" fill="#FFC700"/>
<rect x="156" y="104" width="124" height="10" rx="5" fill="#FFC700"/>
<rect x="103" y="104" width="27" height="10" rx="5" fill="#FFC700"/>
</svg>
