<svg width="13" height="21" viewBox="0 0 13 21" fill="none" xmlns="http://www.w3.org/2000/svg">
<path d="M7.25062 8.44655C6.93522 7.85115 6.06478 7.85115 5.74938 8.44655C5.50907 8.90054 4.90927 9.03445 4.49125 8.72745C3.94308 8.32485 3.15869 8.69435 3.13868 9.3646C3.1234 9.87567 2.64235 10.2509 2.12968 10.1517C1.45716 10.0216 0.914363 10.6873 1.19361 11.2997C1.4066 11.7667 1.13983 12.3088 0.633821 12.4372C-0.0298805 12.6053 -0.223507 13.4356 0.299709 13.8689C0.698792 14.1991 0.698792 14.8009 0.299709 15.1311C-0.223507 15.5644 -0.0298805 16.3946 0.633821 16.5628C1.13983 16.6912 1.4066 17.2333 1.19361 17.7003C0.914363 18.3127 1.45716 18.9783 2.12968 18.8482C2.64235 18.7491 3.1234 19.1243 3.13868 19.6353C3.15869 20.3056 3.94308 20.6751 4.49125 20.2725C4.90927 19.9655 5.50907 20.0993 5.74938 20.5535C6.06478 21.1488 6.93522 21.1488 7.25062 20.5535C7.49093 20.0993 8.09073 19.9655 8.50875 20.2725C9.05692 20.6751 9.84131 20.3056 9.86132 19.6353C9.8766 19.1243 10.3574 18.7491 10.8703 18.8482C11.5428 18.9783 12.0856 18.3127 11.8064 17.7003C11.5934 17.2333 11.8602 16.6912 12.3662 16.5628C13.0299 16.3946 13.2235 15.5644 12.7003 15.1311C12.3012 14.8009 12.3012 14.1991 12.7003 13.8689C13.2235 13.4356 13.0299 12.6053 12.3662 12.4372C11.8602 12.3088 11.5934 11.7667 11.8064 11.2997C12.0856 10.6873 11.5428 10.0216 10.8703 10.1517C10.3574 10.2509 9.8766 9.87567 9.86132 9.3646C9.84131 8.69435 9.05692 8.32485 8.50875 8.72745C8.09073 9.03445 7.49093 8.90054 7.25062 8.44655Z" fill="#FFC700"/>
</svg>
